# xmcd
#
# Track frame offsets:
#	150
#	92287
#	133867
#
# Disc length: 2457 seconds
#
# Revision: 0
# Processed by: cddbd v1.5.1PL0 Copyright (c) Steve Scherf et al.
# Submitted via: dBpowerAMP V4.0
#
DISCID=1c099703
DTITLE=Various Artist - eminem
DYEAR=2005
DGENRE=Acoustic
TTITLE0=show - Track01
TTITLE1=show - Track02
TTITLE2=show - Track03
EXTD=emiekkedld
EXTT0=
EXTT1=
EXTT2=
PLAYORDER=
